<svg xmlns="http://www.w3.org/2000/svg" viewBox="0 0 16 16">
  <rect width="16" height="16" fill="none"/>
  <path d="M16,4.69a5.54,5.54,0,0,0-.37-1.93,3.83,3.83,0,0,0-.92-1.42A4,4,0,0,0,13.25.42,5.85,5.85,0,0,0,11.31.05C10.45,0,10.18,0,8,0S5.57,0,4.72.05A5.49,5.49,0,0,0,2.79.42a3.83,3.83,0,0,0-1.42.92A3.87,3.87,0,0,0,.45,2.75,5.85,5.85,0,0,0,.08,4.69C0,5.55,0,5.82,0,8s0,2.44,0,3.29a5.7,5.7,0,0,0,.38,1.93,3.83,3.83,0,0,0,.92,1.42,3.87,3.87,0,0,0,1.41.92,5.85,5.85,0,0,0,1.94.37C5.57,16,5.84,16,8,16s2.44,0,3.29-.05a5.85,5.85,0,0,0,1.94-.37,4.09,4.09,0,0,0,2.34-2.34A6,6,0,0,0,16,11.28c0-.85,0-1.13,0-3.29S16,5.55,16,4.69Zm-1.43,6.52a4.52,4.52,0,0,1-.28,1.49,2.66,2.66,0,0,1-1.52,1.51,4.44,4.44,0,0,1-1.48.28c-.84,0-1.09,0-3.22,0s-2.39,0-3.23,0a4.44,4.44,0,0,1-1.48-.28,2.55,2.55,0,0,1-.92-.59,2.42,2.42,0,0,1-.59-.92,4.51,4.51,0,0,1-.28-1.48c0-.84,0-1.1,0-3.23s0-2.38,0-3.22A4.58,4.58,0,0,1,1.8,3.28a2.3,2.3,0,0,1,.6-.91,2.41,2.41,0,0,1,.91-.6A4.32,4.32,0,0,1,4.79,1.5c.85,0,1.1-.05,3.23-.05s2.39,0,3.23.05a4.26,4.26,0,0,1,1.48.27,2.41,2.41,0,0,1,.91.6,2.49,2.49,0,0,1,.6.91,4.58,4.58,0,0,1,.28,1.49c0,.84,0,1.09,0,3.22S14.55,10.37,14.52,11.21Z" fill="currentColor"/>
  <path d="M8,3.88A4.11,4.11,0,1,0,12.12,8,4.11,4.11,0,0,0,8,3.88Zm0,6.77A2.67,2.67,0,1,1,10.67,8,2.66,2.66,0,0,1,8,10.65Z" fill="currentColor"/>
  <path d="M13.24,3.72a1,1,0,1,1-1-1A1,1,0,0,1,13.24,3.72Z" fill="currentColor"/>
</svg>
