<svg xmlns="http://www.w3.org/2000/svg" xmlns:xlink="http://www.w3.org/1999/xlink"><defs><style>
    .sprite-symbol-usage {display: none;}
    .sprite-symbol-usage:target {display: inline;}
  </style><symbol viewBox="0 0 16 16" id="arrow-down"><path d="M12.67 6.78a.59.59 0 0 1-.07.29.58.58 0 0 1-.18.23l-4 3.22a.66.66 0 0 1-.42.15.66.66 0 0 1-.43-.15l-4-3.33a.68.68 0 0 1-.23-.46.61.61 0 0 1 .15-.48.61.61 0 0 1 .45-.25.67.67 0 0 1 .49.15L8 9.14l3.57-2.88a.73.73 0 0 1 .35-.15.69.69 0 0 1 .37.06.67.67 0 0 1 .28.25.75.75 0 0 1 .1.36Z" fill="currentColor" /></symbol><symbol viewBox="0 0 15.78 15.78" id="close"><path d="M15.56 14.52 8.93 7.89l6.63-6.63a.74.74 0 0 0-1-1L7.89 6.85 1.26.21a.75.75 0 0 0-1 0 .73.73 0 0 0 0 1l6.59 6.68-6.64 6.64a.75.75 0 0 0 0 1 .75.75 0 0 0 1 0l6.68-6.6 6.63 6.63a.74.74 0 0 0 1-1Z" fill="currentColor" /></symbol><symbol viewBox="0 0 16 16" id="facebook"><path d="M13 .42v3.23h-2.84a.64.64 0 0 0-.63.64v1.94h3.16v3.22H9.53v6.46H6.36V9.45H3.82V6.23h2.54V4.29A3.84 3.84 0 0 1 9.84.42Z" fill="currentColor" /></symbol><symbol viewBox="0 0 16 16" id="insta"><path fill="none" d="M0 0h16v16H0z" /><path d="M16 4.69a5.54 5.54 0 0 0-.37-1.93 3.83 3.83 0 0 0-.92-1.42 4 4 0 0 0-1.46-.92 5.85 5.85 0 0 0-1.94-.37C10.45 0 10.18 0 8 0S5.57 0 4.72.05a5.49 5.49 0 0 0-1.93.37 3.83 3.83 0 0 0-1.42.92 3.87 3.87 0 0 0-.92 1.41 5.85 5.85 0 0 0-.37 1.94C0 5.55 0 5.82 0 8v3.29a5.7 5.7 0 0 0 .38 1.93 3.83 3.83 0 0 0 .92 1.42 3.87 3.87 0 0 0 1.41.92 5.85 5.85 0 0 0 1.94.37C5.57 16 5.84 16 8 16s2.44 0 3.29-.05a5.85 5.85 0 0 0 1.94-.37 4.09 4.09 0 0 0 2.34-2.34 6 6 0 0 0 .43-1.96V4.69Zm-1.43 6.52a4.52 4.52 0 0 1-.28 1.49 2.66 2.66 0 0 1-1.52 1.51 4.44 4.44 0 0 1-1.48.28H4.84a4.44 4.44 0 0 1-1.48-.28 2.55 2.55 0 0 1-.92-.59 2.42 2.42 0 0 1-.59-.92 4.51 4.51 0 0 1-.28-1.48V4.77a4.58 4.58 0 0 1 .23-1.49 2.3 2.3 0 0 1 .6-.91 2.41 2.41 0 0 1 .91-.6 4.32 4.32 0 0 1 1.48-.27c.85 0 1.1-.05 3.23-.05s2.39 0 3.23.05a4.26 4.26 0 0 1 1.48.27 2.41 2.41 0 0 1 .91.6 2.49 2.49 0 0 1 .6.91 4.58 4.58 0 0 1 .28 1.49v3.22c0 2.13.03 2.38 0 3.22Z" fill="currentColor" /><path d="M8 3.88A4.11 4.11 0 1 0 12.12 8 4.11 4.11 0 0 0 8 3.88Zm0 6.77A2.67 2.67 0 1 1 10.67 8 2.66 2.66 0 0 1 8 10.65ZM13.24 3.72a1 1 0 1 1-1-1 1 1 0 0 1 1 1Z" fill="currentColor" /></symbol><symbol viewBox="0 0 16 16" id="telega"><path d="M6.3 9.79 6 13.51a1 1 0 0 0 .74-.36l1.77-1.69 3.67 2.68c.68.38 1.15.18 1.33-.62L16 2.23c.22-1-.36-1.38-1-1.14L.77 6.51c-1 .38-.95.92-.16 1.16L4.23 8.8l8.41-5.26c.4-.27.76-.12.46.14Z" fill="currentColor" /></symbol><symbol viewBox="0 0 16 16" id="youtube"><path d="M15.72 4.44A2 2 0 0 0 14 2.87a54.33 54.33 0 0 0-6-.22 54.33 54.33 0 0 0-6 .22A2 2 0 0 0 .28 4.44 17 17 0 0 0 0 8.22 17 17 0 0 0 .28 12 2 2 0 0 0 2 13.58a54.33 54.33 0 0 0 6 .22 54.33 54.33 0 0 0 6-.22A2 2 0 0 0 15.72 12 17 17 0 0 0 16 8.22a17 17 0 0 0-.28-3.78Zm-9.78 6.27v-5.3L11 8.07Z" fill="currentColor" /></symbol></defs><use id="arrow-down-usage" xlink:href="#arrow-down" class="sprite-symbol-usage" /><use id="close-usage" xlink:href="#close" class="sprite-symbol-usage" /><use id="facebook-usage" xlink:href="#facebook" class="sprite-symbol-usage" /><use id="insta-usage" xlink:href="#insta" class="sprite-symbol-usage" /><use id="telega-usage" xlink:href="#telega" class="sprite-symbol-usage" /><use id="youtube-usage" xlink:href="#youtube" class="sprite-symbol-usage" /></svg>